<?xml version="1.0" encoding="UTF-8" standalone="no"?>
<svg
   version="1.1"
   x="0px"
   y="0px"
   width="256.01443"
   height="105.17909"
   viewBox="0 0 256.01443 105.17909"
   id="svg160"
   sodipodi:docname="logo_BUW.svg"
   inkscape:version="1.2.2 (1:1.2.2+202305151914+b0a8486541)"
   xmlns:inkscape="http://www.inkscape.org/namespaces/inkscape"
   xmlns:sodipodi="http://sodipodi.sourceforge.net/DTD/sodipodi-0.dtd"
   xmlns="http://www.w3.org/2000/svg"
   xmlns:svg="http://www.w3.org/2000/svg">
  <defs
     id="defs164" />
  <sodipodi:namedview
     id="namedview162"
     pagecolor="#ffffff"
     bordercolor="#666666"
     borderopacity="1.0"
     inkscape:showpageshadow="2"
     inkscape:pageopacity="0.0"
     inkscape:pagecheckerboard="0"
     inkscape:deskcolor="#d1d1d1"
     showgrid="false"
     inkscape:zoom="2.247619"
     inkscape:cx="157.5"
     inkscape:cy="52.5"
     inkscape:window-width="1854"
     inkscape:window-height="1130"
     inkscape:window-x="66"
     inkscape:window-y="33"
     inkscape:window-maximized="1"
     inkscape:current-layer="svg160" />
  <rect
     style="fill:#373737;stroke:#000000;stroke-width:0.295953;stroke-linecap:round"
     id="rect499"
     width="255.71849"
     height="104.88314"
     x="0.14797655"
     y="0.14797652"
     ry="3.3981261e-05" />
  <g
     fill="#ffffff"
     id="g158"
     transform="translate(8.1790919,0.17909188)">
    <path
       d="m 103.24377,71.34611 3.20361,13.13948 h 3.20101 l 2.56652,-10.04508 2.38451,10.04508 h 3.1308 l 3.34923,-13.13948 h -2.69395 l -2.12967,9.84746 -2.31169,-9.84746 h -3.18801 l -2.56392,9.84746 -2.03866,-9.84746 h -2.90977 v 0 z m 20.69604,-0.0156 v 7.8608 c 0,1.21956 0.0364,2.23369 0.67348,3.24002 1.24036,1.98145 3.63786,2.27009 4.95103,2.27009 2.65754,0 5.77013,-1.25336 5.77013,-5.16426 v -8.20665 h -2.74595 v 7.8608 c 0,1.32617 -0.14562,1.83843 -0.41865,2.23369 -0.72809,1.13374 -2.09587,1.14154 -2.54573,1.14154 -2.75375,0 -2.86296,-1.79683 -2.86296,-3.23482 V 71.3227 h -2.82136 v 0.0078 z m 15.49018,13.11868 h 2.85516 v -5.11485 h 1.91125 c 0.69169,0 2.02046,0 2.98519,-0.61888 1.03493,-0.67088 1.67462,-1.96065 1.67462,-3.49485 0,-0.67088 -0.10921,-1.62001 -0.80091,-2.45731 -1.09214,-1.30537 -2.67314,-1.43278 -4.56879,-1.43278 h -4.06172 l 0.005,13.11868 v 0 z m 2.78236,-10.99421 h 1.41978 c 0.8035,0 2.31429,0 2.31429,1.78903 0,2.00485 -1.69021,2.00485 -2.60293,2.00485 h -1.12854 l -0.003,-3.79388 z m 9.79805,10.99421 h 2.85516 v -5.11485 h 1.91385 c 0.69169,0 2.02046,0 2.97999,-0.61888 1.03493,-0.67088 1.67981,-1.96065 1.67981,-3.49485 0,-0.67088 -0.11181,-1.62001 -0.8035,-2.45731 -1.09474,-1.30537 -2.67054,-1.43278 -4.56879,-1.43278 h -4.05912 l 0.003,13.11868 v 0 z m 2.78236,-10.99421 h 1.41718 c 0.8035,0 2.31689,0 2.31689,1.78903 0,2.00485 -1.69541,2.00485 -2.60553,2.00485 h -1.12854 z m 9.59262,10.99421 h 9.00495 v -2.17908 h -6.18619 v -3.55466 h 5.60632 v -2.14267 h -5.60632 v -3.13341 h 5.99117 V 71.2915 h -8.80993 v 13.15768 0 h 1e-5 z m 12.32298,0 h 2.87076 v -5.31248 h 2.47812 c 0.47586,0 1.16235,0 1.41718,0.7463 0.18203,0.50707 0.58768,3.84069 0.70989,4.56619 h 3.1126 c -0.15082,-0.21843 -0.26263,-0.36145 -0.40045,-0.94393 -0.091,-0.36664 -0.20283,-1.00113 -0.40045,-2.54833 -0.23923,-1.71102 -0.37964,-2.83957 -2.3637,-3.02158 0.63709,-0.17682 2.74855,-0.7619 2.74855,-3.21921 0,-0.85811 -0.32504,-1.81764 -1.14154,-2.53013 -1.05314,-0.91012 -2.53013,-0.91012 -3.98371,-0.89452 h -5.04204 l -0.005,13.15768 v 0 1e-5 z m 2.78236,-11.08002 h 1.89564 c 0.89452,0 1.42238,0 1.85923,0.30424 0.25743,0.16642 0.69429,0.58507 0.69429,1.47699 0,0.92832 -0.52786,1.38598 -0.72549,1.529 -0.45766,0.36664 -1.11294,0.36664 -1.44318,0.36664 h -2.27529 l -0.005,-3.67687 z m 13.52172,11.08002 h 2.84217 v -10.976 h 3.9161 v -2.18428 h -10.66916 v 2.18428 h 3.9109 v 10.976 0 z m 11.43627,-13.15768 -4.7482,13.16028 h 2.69135 l 0.98552,-2.83957 h 5.20586 l 0.94393,2.83957 h 2.83957 l -4.57139,-13.16028 h -3.34663 v 0 z m -0.34585,8.19105 1.94505,-5.60632 1.82284,5.60632 h -3.76788 v 0 z m 11.17882,4.96664 h 8.51609 v -2.23369 h -5.65052 V 71.31232 h -2.87076 l 0.005,13.13688 v 0 z"
       id="path2" />
    <path
       d="m 104.28131,45.06455 v 7.8634 c 0,1.22216 0.0364,2.23629 0.67348,3.24262 1.23776,1.98145 3.63526,2.27009 4.95103,2.27009 2.65494,0 5.77013,-1.25336 5.77013,-5.16426 V 45.06455 H 112.93 v 7.8634 c 0,1.32877 -0.14822,1.84103 -0.41865,2.23629 -0.72809,1.13374 -2.09587,1.14154 -2.54833,1.14154 -2.75115,0 -2.86036,-1.79683 -2.86036,-3.23742 v -8.00902 l -2.82136,0.0052 v 0 z m 15.07153,13.12388 h 2.65494 V 47.26964 l 5.09665,10.91879 h 3.87449 V 45.03075 h -2.61853 v 10.35192 l -4.93543,-10.35192 h -4.07212 z m 15.39917,0 h 2.81876 V 44.99434 h -2.81876 z m 5.64272,-13.10307 4.84182,13.10307 h 3.07619 l 4.83922,-13.10307 h -2.78236 l -3.45844,10.31812 -3.44024,-10.31812 h -3.07619 v 0 h -1e-5 z m 15.72941,13.10307 h 9.00495 v -2.18428 h -6.18619 v -3.54946 h 5.60632 v -2.14527 h -5.60632 v -3.13341 h 5.98857 v -2.14527 h -8.80733 v 13.15768 0 h 10e-6 z m 12.32038,0 h 2.87076 v -5.31248 h 2.47812 c 0.47326,0 1.16235,0 1.41718,0.7463 0.18203,0.50707 0.58768,3.84069 0.70989,4.56619 h 3.1048 c -0.14302,-0.21843 -0.25483,-0.36664 -0.39265,-0.94393 -0.091,-0.36664 -0.20283,-1.00113 -0.40045,-2.54573 -0.23923,-1.71102 -0.37964,-2.84217 -2.3663,-3.02418 0.63969,-0.18203 2.75115,-0.7645 2.75115,-3.22181 0,-0.85551 -0.32504,-1.82024 -1.14675,-2.53013 -1.05054,-0.91012 -2.53013,-0.91012 -3.98111,-0.89192 h -5.03944 l -0.005,13.15768 v 0 z m 2.77976,-11.08782 h 1.89564 c 0.89452,0 1.42238,0 1.85923,0.30944 0.25483,0.16382 0.69169,0.58247 0.69169,1.47439 0,0.92832 -0.52786,1.38338 -0.72809,1.529 -0.45506,0.36405 -1.11034,0.36405 -1.44058,0.36405 h -2.27529 l -0.003,-3.67687 v 0 z m 10.54695,6.88048 c 0.0156,1.27416 0.052,4.51418 5.09405,4.51418 3.63786,0 5.59852,-1.90864 5.59852,-4.28015 0,-2.56392 -2.23109,-3.1828 -4.50637,-3.72887 -1.89564,-0.47326 -2.86296,-0.69169 -2.86296,-1.91125 0,-1.07654 0.85291,-1.78643 2.16868,-1.78643 1.94505,0 2.09587,1.54719 2.12707,2.00485 h 2.71214 c 0,-0.43686 0,-1.49259 -0.7463,-2.43911 -0.98032,-1.23776 -2.60033,-1.54459 -3.96291,-1.54459 -3.66127,0 -5.20586,1.90864 -5.20586,4.07732 0,2.27529 1.70842,3.20361 4.83662,3.98891 1.67981,0.39525 2.49372,0.59548 2.49372,1.76823 0,1.10774 -0.96472,1.83843 -2.49372,1.83843 -2.42351,0 -2.38711,-1.88004 -2.38711,-2.49892 h -2.86556 v -0.0026 z m 14.0444,4.20734 h 2.81876 V 44.99434 h -2.81876 z m 9.59782,0 h 2.83957 v -10.976 h 3.9109 v -2.18168 h -10.66136 v 2.18168 h 3.9109 v 10.976 0 z m 13.94039,-14.14321 h 1.85923 v -2.14527 h -1.85923 z m -3.1282,0 h 1.85403 v -2.14527 h -1.85403 z m 0.80091,1.00113 -4.7534,13.14208 h 2.69655 l 0.98032,-2.83957 h 5.20586 l 0.94393,2.83957 h 2.83957 l -4.56619,-13.14208 h -3.34663 v 0 z m -0.34325,8.17284 1.94505,-5.61152 1.81764,5.61152 h -3.76268 v 0 z m 12.5154,4.96924 h 2.84217 v -10.976 h 3.9161 v -2.18168 h -10.66916 v 2.18168 h 3.9109 v 10.976 0 z"
       id="path4" />
    <path
       d="m 104.2085,31.92507 h 4.91462 c 0.50967,0 2.29609,0 3.31282,-0.52786 1.01933,-0.50967 1.92945,-1.54459 1.92945,-3.0944 0,-1.38338 -0.7827,-2.83957 -2.78236,-3.20361 v -0.03641 c 0.7619,-0.20023 1.40158,-0.7801 1.48999,-0.88931 0.67348,-0.61888 0.7645,-1.47439 0.7645,-1.96586 0,-0.7645 -0.27303,-2.03866 -1.47179,-2.80316 -1.00113,-0.61888 -2.47552,-0.61888 -3.24002,-0.61888 h -4.91462 l -0.003,13.13948 v 0 1e-5 z m 2.69135,-11.12162 h 1.90864 c 0.92832,0 2.31689,0 2.31689,1.63821 0,1.69281 -1.46139,1.69281 -2.25969,1.69281 h -1.96586 v -3.33102 0 h 1e-5 z m 0,5.36968 h 1.62001 c 1.34957,0 3.04239,0 3.04239,1.87744 0,1.76563 -1.46139,1.76563 -2.75375,1.76563 h -1.90864 v -3.64307 0 z m 11.01501,5.75194 h 9.00755 v -2.18168 h -6.1888 v -3.55206 h 5.60372 v -2.14527 h -5.60372 v -3.13341 h 5.98857 v -2.14527 h -8.80733 v 13.15768 0 h 1e-5 z m 12.32298,0 h 2.87336 v -5.31508 h 2.47812 c 0.47326,0 1.16235,0 1.41978,0.7463 0.17943,0.50967 0.58247,3.84069 0.70729,4.56879 h 3.11 c -0.14562,-0.21843 -0.25483,-0.36405 -0.40045,-0.94653 -0.0884,-0.36405 -0.19763,-1.00113 -0.39785,-2.54833 -0.23923,-1.71102 -0.38225,-2.83957 -2.3637,-3.02158 0.63709,-0.18203 2.74595,-0.7619 2.74595,-3.22181 0,-0.85551 -0.32764,-1.82024 -1.14154,-2.53013 -1.05574,-0.91012 -2.53273,-0.91012 -3.98631,-0.89192 h -5.03944 l -0.005,13.16028 v 0 1e-5 z m 2.78236,-11.08522 h 1.89304 c 0.89452,0 1.42238,0 1.85923,0.30944 0.25483,0.16382 0.69429,0.58247 0.69429,1.47439 0,0.92832 -0.53046,1.38598 -0.72809,1.529 -0.45506,0.36405 -1.11034,0.36405 -1.43798,0.36405 h -2.27529 l -0.005,-3.67687 v 0 z m 22.55529,1.96586 c -0.0208,-0.70989 -0.0754,-1.74742 -0.94913,-2.74855 -1.03233,-1.18315 -2.78236,-1.65642 -4.47517,-1.65642 -3.98631,0 -6.89608,2.49112 -6.89608,7.15351 0,1.38078 0.27303,3.47664 1.74482,4.91462 1.03753,1.01933 2.58473,1.74482 5.58812,1.74482 2.64194,0 3.98631,-0.45506 4.80541,-0.72809 v -6.56844 h -5.36448 v 2.18168 h 2.54573 v 2.76935 c -0.30944,0.09101 -0.7827,0.25483 -2.14787,0.25483 -1.568,0 -2.43911,-0.40045 -3.0944,-1.13114 -0.96472,-1.03753 -1.09214,-2.63934 -1.09214,-3.53125 0,-2.02046 0.63709,-5.00824 3.84329,-5.00824 0.62148,0 1.65642,0.14562 2.19988,1.02193 0.33024,0.50967 0.35365,0.98292 0.36924,1.32877 h 2.92797 v 0.0026 h -0.005 v 1e-5 z m 3.69768,9.11937 h 2.81876 V 18.73099 h -2.81876 z m 6.05878,-4.20474 c 0.0208,1.27416 0.0546,4.51158 5.09405,4.51158 3.64046,0 5.60632,-1.90864 5.60632,-4.27495 0,-2.56652 -2.23369,-3.18541 -4.50898,-3.73147 -1.89564,-0.47326 -2.86036,-0.69169 -2.86036,-1.91125 0,-1.07394 0.85291,-1.78903 2.16347,-1.78903 1.95025,0 2.09847,1.54979 2.12967,2.00485 h 2.71214 c 0,-0.43686 0,-1.49519 -0.7437,-2.44171 -0.98812,-1.23776 -2.60813,-1.54459 -3.97071,-1.54459 -3.65607,0 -5.20066,1.90864 -5.20066,4.07732 0,2.27529 1.70581,3.20361 4.83922,3.98631 1.67722,0.40045 2.49372,0.60068 2.49372,1.76563 0,1.11034 -0.96472,1.83843 -2.49372,1.83843 -2.42611,0 -2.38971,-1.87484 -2.38971,-2.49372 h -2.87076 v 0.0026 z m 24.49773,-4.65979 c 0,-2.62113 -2.02046,-4.36596 -4.89642,-4.36596 -3.69768,0 -6.02237,2.76415 -6.02237,6.93509 0,3.25822 1.47179,6.60745 6.00677,6.60745 1.20396,0 2.67314,-0.27303 3.84069,-1.47179 1.05574,-1.09214 1.13634,-2.31169 1.18315,-3.0944 h -2.96698 c -0.0546,1.74742 -1.18315,2.49372 -2.3663,2.49372 -2.75115,0 -2.75115,-3.73147 -2.75115,-4.51418 0,-2.71214 0.87371,-4.89642 2.96958,-4.89642 1.90604,0 2.07767,1.85663 2.12967,2.31169 h 2.87336 v -0.0052 -10e-6 z m 3.27382,8.86453 h 2.81876 v -5.77013 h 5.01084 v 5.77013 h 2.82396 V 18.7674 h -2.86296 v 5.26047 h -4.97184 V 18.7674 h -2.81876 v 13.15768 0 h -1e-5 z m 14.73088,0 h 9.00495 V 29.7434 h -6.18619 v -3.55206 h 5.60632 v -2.14527 h -5.60632 v -3.13341 h 5.99117 v -2.14527 h -8.80993 v 13.15768 0 h 1e-5 z"
       id="path6" />
    <path
       d="m 40.91381,12.00133 v 0 l -0.013,-0.23923 c 0,-1.54459 1.25596,-2.79796 2.81096,-2.79796 1.55239,0 2.81096,1.25076 2.81096,2.79796 l -0.0104,0.23923 z"
       id="path8" />
    <path
       d="m 43.9302,23.24776 v -3.01638 h -2.75375 -9.96708 0.0052 c 0.17943,1.69541 1.6044,3.01638 3.33883,3.01638 z"
       id="path10" />
    <path
       d="M 34.42338,12.00653 31.38619,8.98235 h 3.87449 v 0 c 1.75522,0 3.19841,1.32357 3.38043,3.02158 l -4.21774,0.0026 v 0 z"
       id="path12" />
    <path
       d="m 28.90808,23.26596 h -3.60146 l -0.0052,0.013 c 0.28344,-1.72142 1.78903,-3.03459 3.59886,-3.03459 l 0.0078,3.02158 v 0 z"
       id="path14" />
    <path
       d="m 43.02788,27.02084 h -7.15872 -6.96109 -0.013 c -1.79683,0 -3.29202,-1.29236 -3.59105,-2.99558 l 7.18732,0.013 h 6.95849 0.013 c 1.79683,0 3.29202,1.29236 3.59366,2.99558 z"
       id="path16" />
    <path
       d="m 32.69156,31.48041 -3.02418,3.03719 h 6.42282 9.62383 8.48489 c 1.76563,0 3.21141,-1.33657 3.38563,-3.04239 l 0.0026,0.0052 h -6.37081 -9.90727 -8.6175 v 0 z"
       id="path18" />
    <path
       d="m 53.17177,12.00393 3.03719,-3.02158 h -3.87449 l 0.0026,0.0026 c -1.75522,0 -3.19841,1.32357 -3.38043,3.02158 l 4.21514,-0.0026 v 0 z"
       id="path20" />
    <polygon
       points="49.258292,15.751034 52.295476,12.726783 52.295476,12.713845 35.057889,12.739797 38.082053,15.763968 49.245272,15.763968 "
       id="polygon22" />
    <path
       d="m 43.9302,27.02344 v -3.02158 l 14.22382,0.0026 h 0.0078 c -0.17943,1.69801 -1.62521,3.02158 -3.38043,3.02158 z"
       id="path24" />
    <path
       d="m 44.6817,23.26856 3.05279,-3.02158 h 8.79173 l 0.0078,-0.0026 c -0.17943,1.69801 -1.62521,3.02158 -3.38043,3.02158 l -8.47188,0.0026 v 0 z"
       id="path26" />
    <path
       d="m 33.64588,27.75414 h 9.40801 6.79726 9.11417 0.0078 c -0.18463,1.69281 -1.61481,3.02418 -3.36743,3.02418 h -8.27165 -4.56359 -5.76754 c -1.74742,0 -3.1698,-1.33137 -3.35703,-3.02418 z"
       id="path28" />
    <path
       d="m 30.06523,38.24648 v 0 l -3.95511,3.9239 -2.14007,-2.14787 -0.0078,0.0104 h 0.0052 l 4.83402,-4.79241 h 10.29212 4.88343 5.91575 3.33102 l 2.90977,-0.0026 c -0.18463,1.69281 -1.62781,3.00858 -3.37783,3.00858 z"
       id="path30" />
    <path
       d="m 31.58902,42.00656 19.32047,0.0078 c 1.75522,0 3.20101,-1.32357 3.38043,-3.02418 L 30.29665,38.99278 17.4094,51.81502 c 1.33657,1.07654 3.30762,1.01153 4.55058,-0.22362 l 9.62903,-9.58482 v 0 -10e-6 z"
       id="path32" />
    <path
       d="m 33.08681,45.75363 15.52399,0.0104 c 1.75522,0 3.19841,-1.32357 3.38043,-3.02418 l -20.18378,0.0026 -9.13496,9.06996 c 1.33917,1.07914 3.31022,1.01153 4.55058,-0.22622 l 5.86375,-5.83255 v 0 z"
       id="path34" />
    <path
       d="m 33.30263,46.52333 h 16.70194 l 2.14527,3.02418 H 43.30091 34.5794 l -2.09587,2.08807 c -1.24295,1.23516 -3.21661,1.30017 -4.55058,0.22622 l 5.36448,-5.32809 0.0052,-0.0104 v 0 10e-6 z"
       id="path36" />
    <path
       d="m 55.32486,53.99669 -16.89956,0.0104 c 0.17943,1.69541 1.62261,3.04239 3.37783,3.04239 l 15.68001,0.0052 -2.15827,-3.05799 v 0 z"
       id="path38" />
    <path
       d="m 52.70632,50.28081 -17.74726,-0.0104 c 0.17943,1.69801 1.62261,3.03979 3.37783,3.03979 L 54.849,53.3154 52.70633,50.28081 v 0 z"
       id="path40" />
    <path
       d="m 43.63376,91.53509 h -5.33068 0.0052 c 0.16902,1.69021 1.5316,3.01118 3.18801,3.01118 h 2.14007 0.29384 v -3.01118 h -0.28084 z"
       id="path42" />
    <path
       d="m 46.10668,87.04432 h -2.25969 -7.97782 l 0.0052,-0.0156 c 0.18463,-1.69541 1.63041,-3.02158 3.38824,-3.02158 h 3.82249 3.02418 3.03459 v 0 0 h 3.82249 c 1.75783,0 3.20101,1.32617 3.38563,3.02158 l 0.0052,0.0156 h -7.97522 -2.25969 z"
       id="path44" />
    <path
       d="m 40.828,76.52077 c 1.5992,0.16122 2.87076,1.42238 3.04239,3.00598 l 0.0026,0.0156 H 40.828 Z"
       id="path46" />
    <path
       d="m 45.83364,80.26005 h 1.99705 8.52389 l -0.0052,0.0104 c -0.18203,1.70061 -1.62781,3.02158 -3.38563,3.02158 h 0.0052 -7.13271 -2.76675 -7.21333 l 0.0052,-0.0104 c 0.18203,-1.70061 1.63041,-3.02158 3.38563,-3.02158 h 3.82509 2.76155 v 0 z"
       id="path48" />
    <path
       d="m 44.11742,87.74641 h 7.38494 l -0.0078,0.0104 c -0.17943,1.70061 -1.62781,3.02678 -3.38563,3.02678 h 0.0052 -3.99411 -6.09778 -7.97262 l 0.0052,-0.0156 c 0.18203,-1.70061 1.63041,-3.02158 3.38563,-3.02158 h 3.82249 3.27902 3.57546 v 0 0 h -1e-5 z"
       id="path50" />
    <path
       d="m 47.03759,19.48768 -13.38131,-0.0078 -0.0078,0.013 c 0.17162,-1.70581 1.62261,-3.03459 3.38043,-3.03459 l 10.01128,0.0078 8.50569,0.0052 0.0078,-0.013 c -0.17422,1.70581 -1.62261,3.03459 -3.38043,3.03459 h -0.0182 l -5.16686,-0.0026 0.04941,-0.0026 v 0 z"
       id="path52" />
    <path
       d="m 47.31322,69.01621 -4.95883,0.0052 c 0.17943,1.69541 1.62261,3.04239 3.37783,3.04239 h 1.47439 l 0.08061,0.02601 h 2.21028 l 0.03381,0.0052 h 6.82327 l -0.0052,-0.0208 c -0.16902,-1.63561 -1.5134,-2.93578 -3.1776,-3.03719 l -3.64567,0.0104 -2.31689,-0.03121 h 0.10401 v 0 z"
       id="path54" />
    <path
       d="m 56.35199,65.27694 h -14.8895 c 0.17943,1.70061 1.62521,3.04239 3.37783,3.04239 l 8.43288,-0.0104 z"
       id="path56" />
    <polygon
       points="60.047033,61.503877 45.16011,61.503877 42.107375,64.541057 48.202535,64.541057 56.968268,64.535812 "
       id="polygon58" />
    <path
       d="m 46.03906,57.72556 h -3.9265 c 0.17943,1.70061 1.62261,3.04239 3.37783,3.04239 h 0.54867 l 13.97158,0.0052 -0.0052,-0.0208 c -0.17162,-1.63041 -1.516,-2.94098 -3.1776,-3.03719 l -10.77838,0.0104 z"
       id="path60" />
    <path
       d="m 49.20628,72.77369 h 8.41207 c 1.72142,0.04161 3.13341,1.34697 3.31282,3.01638 l -11.75351,-0.0052 h -2.38971 l -0.0182,0.0052 c -1.72142,-0.04161 -3.1204,-1.34177 -3.30242,-3.01638 h 5.70773 0.03121 v 0 z"
       id="path62" />
    <path
       d="m 55.13503,76.52077 h -6.82587 c -1.75783,0 -3.20101,1.32617 -3.38563,3.02678 l 10.21411,-0.0052 h 2.40791 c 1.75783,0 3.20361,-1.32617 3.38824,-3.02678 l -5.75714,0.0052 h -0.04161 v 0 z"
       id="path64" />
    <path
       d="m 61.33162,50.9283 2.16087,-2.14787 2.17128,-2.16087 v 0 c 1.07134,1.32877 0.98552,3.27382 -0.25223,4.50377 l -1.94245,1.93465 -1.32877,1.32097 h 0.0026 c -1.24295,1.22996 -3.19841,1.31057 -4.53498,0.24443 l 3.72367,-3.69508 v 0 z"
       id="path66" />
    <path
       d="m 72.94991,17.13437 v -4.53498 0.0052 c 1.23516,0 2.31429,0.65529 2.90717,1.63301 z"
       id="path68" />
    <path
       d="m 73.13193,39.1488 7.51757,-7.47596 -0.0026,0.0026 c 1.07914,1.32877 0.99853,3.28162 -0.24443,4.51678 l -7.51497,7.47596 0.0026,-0.0052 c -1.07914,-1.32617 -0.99853,-3.27902 0.24183,-4.51418 z"
       id="path70" />
    <path
       d="m 79.57036,31.76645 -6.65685,6.62305 v 0 c -1.08174,-1.32877 -0.99853,-3.28162 0.24183,-4.51418 l 6.65945,-6.62305 h -0.0026 c 1.08174,1.32617 1.00113,3.27902 -0.24183,4.51418 z"
       id="path72" />
    <path
       d="m 69.20023,32.46593 0.0234,-0.0234 8.32366,-8.28206 3.24262,-3.22441 0.013,0.0052 c 1.07134,1.32617 0.98812,3.27122 -0.24963,4.50377 l -6.82067,6.78427 0.0026,-0.0052 c -1.23776,1.23516 -3.19841,1.31577 -4.53498,0.24183 v 0 h -1e-5 z"
       id="path74" />
    <path
       d="m 77.43548,17.94308 -4.81582,4.78721 0.0052,-0.0026 c -1.07914,-1.32877 -1.00113,-3.28162 0.24183,-4.51678 l 2.42091,-2.40791 4.86002,-4.83662 0.0026,-0.0026 c 1.08174,1.32877 0.99853,3.28162 -0.24183,4.51678 l -2.47292,2.46251 v 0 10e-6 z"
       id="path76" />
    <path
       d="m 58.63508,20.72544 v -4.27495 l 0.0078,-0.0078 6.87528,-6.83627 -0.0026,0.0052 c 1.07914,1.32877 0.99853,3.27902 -0.24183,4.51418 l -6.63865,6.59965 v 0 z"
       id="path78" />
    <path
       d="M 60.55152,29.45215 C 59.48278,28.12598 59.566,26.17833 60.80375,24.94838 l 4.81842,-4.79241 2.13747,2.12707 -7.20813,7.16912 v 0 h 10e-6 z"
       id="path80" />
    <path
       d="m 58.94192,36.31443 c -1.07134,-1.32617 -0.98552,-3.27382 0.25483,-4.50377 l 9.07516,-9.02835 2.13747,2.12707 -11.46746,11.40506 v 0 z"
       id="path82" />
    <path
       d="m 80.7223,15.69639 c 1.07914,1.32877 0.99853,3.28162 -0.24443,4.51678 L 55.57449,44.99694 c -1.07914,-1.32877 -0.99853,-3.28162 0.24183,-4.51678 z"
       id="path84" />
    <path
       d="m 61.2172,12.88804 -2.55093,2.54313 v -3.59366 l 0.37184,-0.0234 c 0.88671,0 1.65902,0.43946 2.17908,1.07394 v 0 z"
       id="path86" />
    <path
       d="m 65.58576,36.0674 v 0 c 1.05314,1.30537 0.98812,3.20881 -0.19243,4.44397 l -0.26263,0.26263 -2.3299,2.3221 -3.19841,3.1828 -1.39117,1.38338 0.0026,-0.0026 c -1.24036,1.23516 -3.19581,1.31577 -4.53238,0.24443 l 3.8459,-3.81989 3.00598,-2.99039 2.67835,-2.66534 2.37411,-2.3611 v 0 0 l -1e-5,10e-6 z"
       id="path88" />
    <path
       d="m 58.49466,48.43458 2.30649,-2.29349 2.67835,-2.66534 2.17128,-2.16087 v 0 c 1.07134,1.32877 0.98552,3.27382 -0.25223,4.50377 l -2.3325,2.3221 -2.43651,2.42351 -0.32764,0.32764 0.0026,-0.0026 c -1.24295,1.23516 -3.19841,1.31577 -4.53498,0.24443 l 2.72514,-2.69915 v 0 0 1e-5 z"
       id="path90" />
    <path
       d="m 77.5291,49.70874 -8.04283,8.00122 -1.46399,1.46139 -1.39117,1.38078 h 0.0026 c -1.24036,1.23516 -3.19581,1.31577 -4.53238,0.24443 l 3.8485,-3.81989 1.39897,-1.39117 8.04283,-8.00902 1.60961,-1.6018 2.67835,-2.66274 2.17128,-2.16347 v 0 c 1.07134,1.32877 0.98552,3.27382 -0.25483,4.50377 l -2.3299,2.3247 -1.73702,1.73182 v 0 h -1e-5 z"
       id="path92" />
    <path
       d="m 67.71284,54.22031 4.47777,-4.45436 -0.013,-0.0052 c -1.33917,-1.07394 -3.30242,-0.99072 -4.54278,0.24443 l 0.0026,-0.0026 -2.08807,2.07507 -2.70954,2.69655 -0.0078,0.0104 -2.61853,2.60553 h 0.013 c 1.33657,1.07654 3.30502,1.00113 4.54278,-0.24443 l 0.21843,-0.21843 2.24669,-2.22849 0.47326,-0.47326 0.0052,-0.0052 v 0 h -1e-5 z"
       id="path94" />
    <path
       d="m 62.28074,18.16671 1.72142,-1.71102 -0.0104,0.0078 1.95545,-1.94505 c 1.08174,1.32877 0.99853,3.28162 -0.24183,4.51678 v 0 l -1.27676,1.26896 -1.38078,1.37298 -0.41085,0.40825 -3.13861,3.123 c -1.08174,-1.32877 -0.99853,-3.28162 0.24443,-4.51418 l 1.15455,-1.15195 0.0104,-0.0104 1.37298,-1.36518 v 0 z"
       id="path96" />
    <polygon
       points="56.739405,66.101194 60.715367,62.143567 62.871001,64.29141 58.897726,68.24388 "
       id="polygon98" />
    <path
       d="m 67.60882,64.88688 -2.26229,2.23889 -1.38857,1.38598 0.0026,-0.0052 c -1.24295,1.23516 -3.19841,1.31577 -4.53498,0.24443 l 3.87189,-3.8641 h 4.31135 v 0 h 1e-5 z"
       id="path100" />
    <path
       d="m 77.38608,50.87629 3.9109,-3.89009 v 0 c 1.07654,1.32877 0.99853,3.28162 -0.24443,4.51678 l -1.516,1.5108 -6.66205,6.62825 -5.14086,5.11485 v 0 C 66.6519,63.43071 66.73511,61.47526 67.97807,60.2427 l 2.75115,-2.73295 6.64385,-6.61005 0.013,-0.0234 v 0 -1e-5 z"
       id="path102" />
    <path
       d="m 63.41969,70.08755 v 0 l 5.33328,-5.30208 3.24002,-3.22441 0.013,0.0052 c 1.07134,1.32617 0.98552,3.27122 -0.25483,4.50377 l -4.04611,4.02791 -4.28535,-0.0104 v 0 10e-6 z"
       id="path104" />
    <polygon
       points="67.970231,70.839054 70.87482,67.944864 70.877442,72.209379 67.975476,75.085387 "
       id="polygon106" />
    <path
       d="m 72.76528,49.10807 0.0052,-0.0026 c -1.07914,-1.32877 -0.99853,-3.28162 0.24183,-4.51678 l 8.81773,-8.76572 0.0104,-0.0052 c 1.08174,1.32617 1.00113,3.27902 -0.24443,4.51418 l -8.81253,8.76832 z"
       id="path108" />
    <path
       d="m 74.52311,60.76796 h -1.73702 l 2.95918,-2.94098 0.013,0.0104 c 0.67868,0.67088 0.67868,1.75783 0,2.43391 -0.34845,0.34585 -0.8087,0.50707 -1.26376,0.49667 h 0.02861 v 0 z"
       id="path110" />
    <path
       d="m 11.44424,14.38842 v 0 C 10.10767,13.30928 8.13922,13.38729 6.90146,14.62505 l 2.14787,2.13747 2.39491,-2.37411 v 0 z"
       id="path112" />
    <path
       d="m 19.01121,12.19634 -3.1412,3.1256 -3.0944,3.08139 -3.33102,3.31282 -4.06172,4.03831 v 0 C 4.31153,24.42829 4.39735,22.48324 5.6351,21.25069 l 3.0944,-3.07879 2.99558,-2.98519 2.72775,-2.71214 0.02601,-0.03381 c 1.24036,-1.23516 3.19841,-1.31577 4.53238,-0.24443 v 0 0 z"
       id="path114" />
    <path
       d="m 19.33365,17.21239 -2.3325,2.3247 -3.19581,3.1828 -1.39117,1.38598 0.0026,-0.0026 c -1.24295,1.23256 -3.19841,1.31577 -4.53238,0.24443 l 3.8485,-3.81989 3.00078,-2.99039 2.67835,-2.66534 2.17128,-2.16087 v 0 c 1.07134,1.32617 0.98812,3.27122 -0.24963,4.50117 v 0 l -1e-5,10e-6 z"
       id="path116" />
    <path
       d="m 24.75535,17.07717 -5.55691,5.52831 -7.30693,7.26793 -0.0026,0.0052 c -1.07134,-1.32877 -0.98812,-3.27382 0.24963,-4.50637 l 5.76234,-5.73634 7.0989,-7.06251 0.0026,-0.0052 c 1.07394,1.33397 0.99072,3.27642 -0.24703,4.50898 v 0 10e-6 z"
       id="path118" />
    <path
       d="m 11.0542,31.80545 2.43911,-2.42611 3.45844,-3.44284 2.66534,-2.65494 3.03719,-3.02418 0.0104,0.0104 c 1.07134,1.32877 0.98812,3.27382 -0.25223,4.50377 l -1.69801,1.69021 -3.04239,3.02938 -2.08287,2.06987 c -1.23776,1.23776 -3.20101,1.31837 -4.53498,0.24443 v 0 z"
       id="path120" />
    <path
       d="m 22.61788,25.55946 2.14787,2.13747 -4.06172,4.03831 0.0104,-0.0078 c -1.24036,1.23256 -3.19581,1.31577 -4.53238,0.24443 l 6.43582,-6.41242 v 0 1e-5 z"
       id="path122" />
    <path
       d="m 30.09382,32.99641 -2.14267,-2.12967 -1.85663,1.84623 -6.72706,6.69325 0.0052,-0.0026 c 1.32357,1.07654 3.22441,1.05054 4.39456,-0.11181 l 6.32661,-6.29541 v 0 h -10e-6 z"
       id="path124" />
    <path
       d="m 27.45449,30.34667 -2.14267,-2.12967 -1.85403,1.84623 -6.72706,6.69325 0.0052,-0.0026 c 1.32357,1.07914 3.22181,1.05314 4.38936,-0.11181 l 6.32921,-6.29541 v 0 h -10e-6 z"
       id="path126" />
    <path
       d="M 6.54002,40.55817 4.39215,38.4207 V 38.4155 C 5.6351,37.17774 7.59576,37.09713 8.93493,38.17107 l -2.39491,2.38711 v 0 z"
       id="path128" />
    <path
       d="m 7.87659,44.52368 -2.92277,2.90977 -2.62113,2.60813 h 0.0026 C 1.25615,48.71021 1.33936,46.75736 2.57972,45.5222 l -0.03381,0.03381 3.1828,-3.1672 0.41345,-0.41085 5.03944,-5.01865 2.62374,-2.60813 v 0 c 1.07914,1.33137 0.99593,3.28422 -0.24963,4.51938 l -4.11893,4.09812 -1.5602,1.555 v 0 z"
       id="path130" />
    <path
       d="M 15.61778,42.15738 8.7659,48.97545 2.74093,54.97182 2.73313,54.95622 C 1.65659,53.62485 1.7372,51.6772 2.98016,50.43944 l 6.84667,-6.81287 6.02757,-5.99897 0.0052,0.013 c 1.07914,1.33137 0.99593,3.28422 -0.24703,4.51938 l 0.0052,-0.0026 v 0 z"
       id="path132" />
    <path
       d="M 10.57833,48.07314 C 9.33278,49.3083 9.25476,51.26375 10.3313,52.58992 l 0.0078,0.013 9.66284,-9.61603 -4.32435,0.0104 -5.09925,5.07585 v 0 z"
       id="path134" />
    <path
       d="m 13.18126,55.03422 c -1.24555,1.24036 -3.20621,1.32097 -4.54538,0.24963 l 0.0026,-0.0052 4.22034,-4.19693 4.74301,-4.71961 3.37783,-3.35963 4.32435,-0.0104 -6.52163,6.48783 -5.56731,5.53351 z"
       id="path136" />
    <path
       d="m 35.28149,53.94208 -5.89496,5.86635 h -0.0026 c -1.07914,-1.32617 -0.99853,-3.28162 0.24443,-4.51418 l 1.35478,-1.35218 h 4.29835 v 0 z"
       id="path138" />
    <path
       d="m 24.65134,65.52656 -11.7015,11.63128 c 1.33397,1.07654 3.30762,1.01153 4.55058,-0.22362 L 28.96788,65.52656 h -4.31655 v 0 z"
       id="path140" />
    <path
       d="m 15.65938,62.83522 -2.14787,-2.13227 v -0.0104 c 1.24295,-1.23516 3.20101,-1.31577 4.54278,-0.24443 l -2.39491,2.38711 v 0 z"
       id="path142" />
    <path
       d="m 24.05326,59.79803 -6.85188,6.81547 -6.02757,5.99897 -0.0052,-0.0104 c -1.07914,-1.33137 -0.99593,-3.28682 0.24703,-4.51938 l 6.84927,-6.81547 6.02497,-5.99897 0.0052,0.0156 c 1.07914,1.33137 0.99853,3.28162 -0.24703,4.51938 l 0.0052,-0.0052 v 0 z"
       id="path144" />
    <path
       d="m 23.99865,65.15472 c 1.18835,-1.23516 1.24815,-3.1438 0.18723,-4.45436 l -2.09327,2.08287 -6.01457,5.98857 c -1.24555,1.24036 -1.32617,3.19061 -0.24703,4.51938 l 0.0052,0.0104 6.55804,-6.52163 1.5758,-1.5706 0.02861,-0.05461 v 0 -1e-5 z"
       id="path146" />
    <path
       d="m 42.08916,68.39473 -2.13747,-2.12707 -3.47924,3.45844 -6.72706,6.69325 0.0026,-0.0052 c 1.32357,1.07654 3.22441,1.05054 4.39196,-0.11181 l 7.94922,-7.90761 v 0 z"
       id="path148" />
    <path
       d="m 39.00776,72.49025 -3.76788,3.74708 h 0.0052 c 1.32357,1.07654 3.22181,1.05054 4.39196,-0.11701 l 1.5134,-1.503 1.93985,-1.92945 -2.13747,-2.12707 -1.93205,1.91905 -0.013,0.0104 v 0 z"
       id="path150" />
    <path
       d="m 36.18641,54.15011 2.14787,2.13747 -8.04283,8.00382 v 0 c -1.08174,-1.32617 -0.99853,-3.28162 0.24183,-4.51418 l 5.65312,-5.62711 v 0 z"
       id="path152" />
    <path
       d="m 26.21413,73.6474 c -1.24295,1.23516 -3.20101,1.31577 -4.54018,0.23923 l 0.03121,-0.0104 17.1492,-17.06338 2.14007,2.13227 -14.78029,14.70228 v 0 10e-6 z"
       id="path154" />
    <path
       d="m 26.7524,78.43202 c -1.24036,1.24036 -3.20101,1.31577 -4.54018,0.24443 l 0.03381,-0.0156 19.27626,-19.18266 2.13747,2.12707 -16.90736,16.82675 v 0 z"
       id="path156" />
  </g>
</svg>
